<?xml version="1.0" encoding="UTF-8" standalone="no"?>
<!-- Generator: Adobe Illustrator 19.2.1, SVG Export Plug-In . SVG Version: 6.00 Build 0)  -->

<svg
   xmlns:dc="http://purl.org/dc/elements/1.1/"
   xmlns:cc="http://creativecommons.org/ns#"
   xmlns:rdf="http://www.w3.org/1999/02/22-rdf-syntax-ns#"
   xmlns:svg="http://www.w3.org/2000/svg"
   xmlns="http://www.w3.org/2000/svg"
   xmlns:sodipodi="http://sodipodi.sourceforge.net/DTD/sodipodi-0.dtd"
   xmlns:inkscape="http://www.inkscape.org/namespaces/inkscape"
   version="1.1"
   id="Layer_1"
   x="0px"
   y="0px"
   viewBox="0 0 716.6001 900"
   xml:space="preserve"
   inkscape:version="0.91 r13725"
   sodipodi:docname="PageLeft.svg"
   width="716.6001"
   height="900"><metadata
     id="metadata3359"><rdf:RDF><cc:Work
         rdf:about=""><dc:format>image/svg+xml</dc:format><dc:type
           rdf:resource="http://purl.org/dc/dcmitype/StillImage" /><dc:title></dc:title></cc:Work></rdf:RDF></metadata><defs
     id="defs3357" /><sodipodi:namedview
     pagecolor="#ffffff"
     bordercolor="#666666"
     borderopacity="1"
     objecttolerance="10"
     gridtolerance="10"
     guidetolerance="10"
     inkscape:pageopacity="0"
     inkscape:pageshadow="2"
     inkscape:window-width="1440"
     inkscape:window-height="847"
     id="namedview3355"
     showgrid="false"
     fit-margin-top="0"
     fit-margin-left="0"
     fit-margin-right="0"
     fit-margin-bottom="0"
     inkscape:zoom="0.31640625"
     inkscape:cx="358.4"
     inkscape:cy="450"
     inkscape:window-x="-8"
     inkscape:window-y="-8"
     inkscape:window-maximized="1"
     inkscape:current-layer="Layer_1" /><rect
     x="83.400002"
     y="146.70001"
     width="183.3"
     height="20"
     id="rect3337" /><rect
     x="83.400002"
     y="220"
     width="366.70001"
     height="20"
     id="rect3339" /><rect
     x="83.400002"
     y="293.29999"
     width="366.70001"
     height="20"
     id="rect3341" /><rect
     x="83.400002"
     y="366.70001"
     width="366.70001"
     height="20"
     id="rect3343" /><path
     d="M 570.1,455.7 570.1,0 36.7,0 l 0,36.7 -36.7,0 0,680 261.4,0 C 283,821.2 375.8,900 486.6,900 c 126.8,0 230,-103.2 230,-230 0.1,-97.4 -60.8,-180.8 -146.5,-214.3 z M 56.7,20 550,20 l 0,428.9 c -5.5,-1.6 -11,-3 -16.7,-4.2 l 0,-408 -476.6,0 0,-16.7 z M 257,680 c 0.2,5.6 0.7,11.2 1.3,16.7 l -238.2,0 0,-640 16.7,0 20,0 456.6,0 0,384.9 c -8.8,-1 -17.7,-1.6 -26.7,-1.6 -12.5,0 -24.7,1 -36.7,2.9 l 0,-2.9 -366.6,0 0,20 309.7,0 C 315.7,494.6 260.8,570.8 257,660 c -0.2,3.3 -0.3,6.7 -0.3,10 0,3.3 0.1,6.7 0.3,10 z M 486.7,880 C 387,880 303.4,810 282.1,716.7 c -0.8,-3.3 -1.4,-6.6 -2,-10 -0.6,-3.3 -1.1,-6.6 -1.5,-10 -0.7,-5.5 -1.1,-11.1 -1.4,-16.7 -0.2,-3.3 -0.5,-6.6 -0.5,-10 0,-3.4 0.3,-6.7 0.5,-10 5.3,-111.1 97.1,-200 209.5,-200 9,0 17.9,0.8 26.7,1.9 3.4,0.4 6.7,0.9 10,1.5 3.4,0.6 6.7,1.2 10,2 5.6,1.3 11.2,2.7 16.7,4.4 6.8,2.2 13.5,4.7 20,7.5 74.4,32.3 126.7,106.5 126.7,192.7 -0.1,115.8 -94.3,210 -210.1,210 z"
     id="path3345"
     inkscape:connector-curvature="0" /><g
     id="g3347"
     transform="translate(-409.6,-574)"><polygon
       points="876,1258.6 892.7,1258.7 912.7,1258.7 1012.6,1259 1012.7,1238.8 912.7,1238.4 892.7,1238.4 876,1238.3 866,1238.3 856,1238.3 812.3,1238.1 856,1172.3 866,1157.3 874.4,1144.6 866,1139 857.6,1133.3 856,1135.7 781.3,1248.1 856.7,1366 873.8,1355 812,1258.4 856,1258.5 866,1258.6 "
       id="polygon3349" /><g
       id="g3351"><path
         d="m 812,1284.4 c 26.2,0.1 52.5,0.2 78.7,0.3 26.5,0.1 52.9,0.2 79.4,0.3 14.2,0 28.3,0.1 42.5,0.1 14.1,0 26,-11.9 26,-26 0,-6.8 0,-13.5 0.1,-20.3 0,-14.1 -11.9,-26 -26,-26 -29.6,-0.1 -59.2,-0.2 -88.8,-0.3 -22.5,-0.1 -45.1,-0.1 -67.6,-0.2 -14.7,0 -29.3,-0.1 -44,-0.2 7.5,13 15,26.1 22.5,39.1 16.1,-24.3 32.3,-48.6 48.4,-72.9 4.6,-6.9 9.1,-13.8 13.7,-20.6 8.1,-12.2 1.8,-28.2 -9.3,-35.6 -5.6,-3.7 -11.3,-7.5 -16.9,-11.2 -12.2,-8.1 -28.1,-1.8 -35.6,9.3 -22.2,33.3 -44.3,66.7 -66.5,100 -3.3,4.9 -6.5,9.8 -9.8,14.7 -4.9,7.4 -4.7,18.8 0,26.2 22,34.5 44.1,68.9 66.1,103.4 3.1,4.8 6.2,9.7 9.3,14.5 7.3,11.5 23.3,17.1 35.6,9.3 5.7,-3.6 11.4,-7.3 17.1,-10.9 11.5,-7.3 17.1,-23.3 9.3,-35.6 -18,-28.2 -36.1,-56.5 -54.1,-84.7 -2.5,-4 -5.1,-8 -7.6,-11.9 -7.3,-11.4 -23.4,-17.1 -35.6,-9.3 -11.5,7.4 -17.2,23.3 -9.3,35.6 18,28.2 36.1,56.5 54.1,84.7 2.5,4 5.1,8 7.6,11.9 3.1,-11.9 6.2,-23.7 9.3,-35.6 -5.7,3.6 -11.4,7.3 -17.1,10.9 11.9,3.1 23.7,6.2 35.6,9.3 -22,-34.5 -44.1,-68.9 -66.1,-103.4 -3.1,-4.8 -6.2,-9.7 -9.3,-14.5 0,8.7 0,17.5 0,26.2 22.3,-33.5 44.5,-67 66.8,-100.5 3.2,-4.7 6.3,-9.5 9.5,-14.2 -11.9,3.1 -23.7,6.2 -35.6,9.3 5.6,3.7 11.3,7.5 16.9,11.2 -3.1,-11.9 -6.2,-23.7 -9.3,-35.6 -17.3,26 -34.6,52 -51.9,78.1 -3.4,5.2 -6.9,10.3 -10.3,15.5 -11.1,16.8 3.6,39.1 22.5,39.1 26.3,0.1 52.7,0.2 79,0.3 26.4,0.1 52.8,0.2 79.3,0.2 14,0 28.1,0.1 42.1,0.1 -8.7,-8.7 -17.3,-17.3 -26,-26 0,6.8 0,13.5 -0.1,20.3 8.7,-8.7 17.3,-17.3 26,-26 -29.7,-0.1 -59.5,-0.2 -89.2,-0.3 -22.4,-0.1 -44.9,-0.1 -67.3,-0.2 -14.7,0 -29.4,-0.1 -44.1,-0.2 -13.6,0 -26.6,12 -26,26 0.6,14.4 11.4,26.2 26,26.3 z"
         id="path3353"
         inkscape:connector-curvature="0" /></g></g></svg>