<?xml version="1.0" encoding="utf-8"?>
<!-- Generator: Adobe Illustrator 19.2.1, SVG Export Plug-In . SVG Version: 6.00 Build 0)  -->
<svg version="1.1" id="Layer_1" xmlns="http://www.w3.org/2000/svg" xmlns:xlink="http://www.w3.org/1999/xlink" x="0px" y="0px"
	 viewBox="0 0 1536 2048" style="enable-background:new 0 0 1536 2048;" xml:space="preserve">
<rect x="493" y="720.7" width="183.3" height="20"/>
<rect x="493" y="794" width="366.7" height="20"/>
<rect x="493" y="867.3" width="366.7" height="20"/>
<rect x="493" y="940.7" width="366.7" height="20"/>
<path d="M979.7,1029.7V574H446.3v36.7h-36.7v680h261.4c21.6,104.5,114.4,183.3,225.2,183.3c126.8,0,230-103.2,230-230
	C1126.3,1146.6,1065.4,1063.2,979.7,1029.7z M466.3,594h493.3v428.9c-5.5-1.6-11-3-16.7-4.2V610.7H466.3V594z M666.6,1254
	c0.2,5.6,0.7,11.2,1.3,16.7H429.7v-640h16.7h20H923v384.9c-8.8-1-17.7-1.6-26.7-1.6c-12.5,0-24.7,1-36.7,2.9v-2.9H493v20h309.7
	c-77.4,34.6-132.3,110.8-136.1,200c-0.2,3.3-0.3,6.7-0.3,10S666.4,1250.7,666.6,1254z M896.3,1454c-99.7,0-183.3-70-204.6-163.3
	c-0.8-3.3-1.4-6.6-2-10c-0.6-3.3-1.1-6.6-1.5-10c-0.7-5.5-1.1-11.1-1.4-16.7c-0.2-3.3-0.5-6.6-0.5-10s0.3-6.7,0.5-10
	c5.3-111.1,97.1-200,209.5-200c9,0,17.9,0.8,26.7,1.9c3.4,0.4,6.7,0.9,10,1.5c3.4,0.6,6.7,1.2,10,2c5.6,1.3,11.2,2.7,16.7,4.4
	c6.8,2.2,13.5,4.7,20,7.5c74.4,32.3,126.7,106.5,126.7,192.7C1106.3,1359.8,1012.1,1454,896.3,1454z"/>
<g>
	<polygon points="982,1240.9 938,1240.8 928,1240.7 918,1240.7 901.4,1240.6 881.4,1240.6 781.4,1240.3 781.3,1260.5 881.4,1260.9 
		901.4,1260.9 918,1261 928,1261 938,1261 981.7,1261.2 938,1327 928,1342 919.6,1354.7 928,1360.3 936.5,1366 938,1363.6 
		1012.7,1251.2 937.3,1133.3 920.3,1144.3 	"/>
	<g>
		<path d="M982,1214.9c-26.2-0.1-52.5-0.2-78.7-0.3c-26.5-0.1-52.9-0.2-79.4-0.3c-14.2,0-28.3-0.1-42.5-0.1c-14.1,0-26,11.9-26,26
			c0,6.8,0,13.5-0.1,20.3c0,14.1,11.9,26,26,26c29.6,0.1,59.2,0.2,88.8,0.3c22.5,0.1,45.1,0.1,67.6,0.2c14.7,0,29.3,0.1,44,0.2
			c-7.5-13-15-26.1-22.5-39.1c-16.1,24.3-32.3,48.6-48.4,72.9c-4.6,6.9-9.1,13.8-13.7,20.6c-8.1,12.2-1.8,28.2,9.3,35.6
			c5.6,3.7,11.3,7.5,16.9,11.2c12.2,8.1,28.1,1.8,35.6-9.3c22.2-33.3,44.3-66.7,66.5-100c3.3-4.9,6.5-9.8,9.8-14.7
			c4.9-7.4,4.7-18.8,0-26.2c-22-34.5-44.1-68.9-66.1-103.4c-3.1-4.8-6.2-9.7-9.3-14.5c-7.3-11.5-23.3-17.1-35.6-9.3
			c-5.7,3.6-11.4,7.3-17.1,10.9c-11.5,7.3-17.1,23.3-9.3,35.6c18,28.2,36.1,56.5,54.1,84.7c2.5,4,5.1,8,7.6,11.9
			c7.3,11.4,23.4,17.1,35.6,9.3c11.5-7.4,17.2-23.3,9.3-35.6c-18-28.2-36.1-56.5-54.1-84.7c-2.5-4-5.1-8-7.6-11.9
			c-3.1,11.9-6.2,23.7-9.3,35.6c5.7-3.6,11.4-7.3,17.1-10.9c-11.9-3.1-23.7-6.2-35.6-9.3c22,34.5,44.1,68.9,66.1,103.4
			c3.1,4.8,6.2,9.7,9.3,14.5c0-8.7,0-17.5,0-26.2c-22.3,33.5-44.5,67-66.8,100.5c-3.2,4.7-6.3,9.5-9.5,14.2
			c11.9-3.1,23.7-6.2,35.6-9.3c-5.6-3.7-11.3-7.5-16.9-11.2c3.1,11.9,6.2,23.7,9.3,35.6c17.3-26,34.6-52,51.9-78.1
			c3.4-5.2,6.9-10.3,10.3-15.5c11.1-16.8-3.6-39.1-22.5-39.1c-26.3-0.1-52.7-0.2-79-0.3c-26.4-0.1-52.8-0.2-79.3-0.2
			c-14,0-28.1-0.1-42.1-0.1c8.7,8.7,17.3,17.3,26,26c0-6.8,0-13.5,0.1-20.3c-8.7,8.7-17.3,17.3-26,26c29.7,0.1,59.5,0.2,89.2,0.3
			c22.4,0.1,44.9,0.1,67.3,0.2c14.7,0,29.4,0.1,44.1,0.2c13.6,0,26.6-12,26-26C1007.4,1226.8,996.6,1215,982,1214.9z"/>
	</g>
</g>
</svg>
