<?xml version="1.0" encoding="utf-8"?>
<!-- Generator: Adobe Illustrator 19.2.1, SVG Export Plug-In . SVG Version: 6.00 Build 0)  -->
<svg version="1.1" id="Layer_1" xmlns="http://www.w3.org/2000/svg" xmlns:xlink="http://www.w3.org/1999/xlink" x="0px" y="0px"
	 viewBox="0 0 1536 2048" style="enable-background:new 0 0 1536 2048;" xml:space="preserve">
<style type="text/css">
	.st0{fill:#FFFFFF;}
	.st1{fill:none;stroke:#000000;stroke-width:60;stroke-miterlimit:10;}
	.st2{fill:#666666;}
	.st3{fill:#A6A6A6;}
</style>
<g>
	<path class="st0" d="M367.6,1045.4c85.2-172.2,240.6-303.5,424.3-359.5"/>
	<g>
		<path class="st1" d="M397.7,991c72.2-117.6,178.6-212.1,303.4-270.2"/>
		<g>
			<g>
				<path class="st2" d="M398.7,997.2c-23.4,9.9-49,14.5-74.3,14.5l54.3-84.4c26.5,1,52.9-7,76.7-18.2L398.7,997.2z"/>
				<path class="st3" d="M455.4,909c-0.7,26.4,4,53.4,15.2,77.3l-54.2,84.2c-10.6-23.6-17.1-48.1-17.7-73.4L455.4,909z"/>
				<path d="M381.9,922.4c26.5,1,52.9-7,76.7-18.2c-0.7,26.4,4,53.3,15.2,77.3l-7.3,11.3c-10.5-23.6-17.1-48.1-17.7-73.4
					c-23.5,9.9-49,14.5-74.3,14.5L381.9,922.4z"/>
				<path d="M364.3,949.7c26.5,1,52.9-7,76.7-18.2c-0.7,26.4,4.1,53.3,15.2,77.3l-7.3,11.3c-10.6-23.6-17.1-48.1-17.7-73.4
					c-23.4,9.9-49,14.5-74.3,14.5L364.3,949.7z"/>
				<path d="M346.7,977c26.5,1,52.9-7,76.7-18.2c-0.7,26.4,4.1,53.3,15.2,77.3l-7.3,11.3c-10.6-23.6-17.1-48.1-17.7-73.4
					c-23.5,9.9-49,14.5-74.3,14.5L346.7,977z"/>
				<path d="M329.1,1004.3c26.4,1,52.9-7,76.7-18.2c-0.7,26.4,4.1,53.3,15.2,77.3l-7.3,11.3c-10.6-23.6-17.1-48.1-17.7-73.4
					c-23.5,9.9-49,14.5-74.3,14.5L329.1,1004.3z"/>
			</g>
		</g>
		<g>
			<g>
				<polygon points="672.5,806.3 694.7,725.8 622.4,684 791.9,685.9 				"/>
				<g>
					<polygon class="st3" points="684.3,785.8 777.4,691.9 701.7,722.9 					"/>
					<polygon class="st2" points="645.2,690.4 777.4,691.9 701.7,722.9 					"/>
				</g>
			</g>
		</g>
	</g>
</g>
</svg>
